<svg fill="none" height="114" viewBox="0 0 114 114" width="114" xmlns="http://www.w3.org/2000/svg" xmlns:xlink="http://www.w3.org/1999/xlink"><filter id="a" color-interpolation-filters="sRGB" filterUnits="userSpaceOnUse" height="114" width="123.5" x="-9.5" y="0"><feFlood flood-opacity="0" result="BackgroundImageFix"/><feBlend in="SourceGraphic" in2="BackgroundImageFix" mode="normal" result="shape"/><feColorMatrix in="SourceAlpha" result="hardAlpha" type="matrix" values="0 0 0 0 0 0 0 0 0 0 0 0 0 0 0 0 0 0 127 0"/><feOffset dx="-14.25"/><feGaussianBlur stdDeviation="4.75"/><feComposite in2="hardAlpha" k2="-1" k3="1" operator="arithmetic"/><feColorMatrix type="matrix" values="0 0 0 0 0.682353 0 0 0 0 0.45098 0 0 0 0 0.980392 0 0 0 0.56 0"/><feBlend in2="shape" mode="normal" result="effect1_innerShadow"/></filter><filter id="b" color-interpolation-filters="sRGB" filterUnits="userSpaceOnUse" height="67.2773" width="60.8097" x="28.0378" y="24.1923"><feFlood flood-opacity="0" result="BackgroundImageFix"/><feColorMatrix in="SourceAlpha" result="hardAlpha" type="matrix" values="0 0 0 0 0 0 0 0 0 0 0 0 0 0 0 0 0 0 127 0"/><feOffset dy=".480491"/><feGaussianBlur stdDeviation=".480491"/><feColorMatrix type="matrix" values="0 0 0 0 0 0 0 0 0 0 0 0 0 0 0 0 0 0 0.12 0"/><feBlend in2="BackgroundImageFix" mode="normal" result="effect1_dropShadow"/><feBlend in="SourceGraphic" in2="effect1_dropShadow" mode="normal" result="shape"/><feColorMatrix in="SourceAlpha" result="hardAlpha" type="matrix" values="0 0 0 0 0 0 0 0 0 0 0 0 0 0 0 0 0 0 127 0"/><feOffset dy=".480491"/><feGaussianBlur stdDeviation=".480491"/><feComposite in2="hardAlpha" k2="-1" k3="1" operator="arithmetic"/><feColorMatrix type="matrix" values="0 0 0 0 0 0 0 0 0 0 0 0 0 0 0 0 0 0 0.12 0"/><feBlend in2="shape" mode="normal" result="effect2_innerShadow"/></filter><linearGradient id="c" gradientUnits="userSpaceOnUse" x1="57" x2="57" y1="0" y2="114"><stop offset="0" stop-color="#130c3f"/><stop offset="1" stop-color="#15197b"/></linearGradient><linearGradient id="d"><stop offset="0" stop-color="#ae73fa"/><stop offset="1" stop-color="#ae73fa" stop-opacity="0"/></linearGradient><linearGradient id="e" gradientUnits="userSpaceOnUse" x1="0" x2="114" xlink:href="#d" y1="57" y2="57"/><linearGradient id="f" gradientUnits="userSpaceOnUse" x1="114" x2="-.000002" xlink:href="#d" y1="57" y2="57"/><circle cx="57" cy="57" fill="url(#c)" r="57"/><g filter="url(#a)"><circle cx="57" cy="57" fill="url(#e)" r="57"/></g><circle cx="57" cy="57" r="56.4062" stroke="url(#f)" stroke-opacity=".12" stroke-width="1.1875"/><g filter="url(#b)"><path clip-rule="evenodd" d="m78.1902 29.5337c.2418-.629-.1949-1.3122-.8672-1.3568l-11.3372-.7519c-.3505-.0232-.6874.1391-.8877.4276l-3.0039 4.3273c-.188.2709-.4976.4317-.8273.4298l-19.957-.1178c-.9792-.0058-1.9264.3478-2.6623.9937l-5.5372 4.8601c-1.232 1.0813-1.6795 2.805-1.1292 4.3491l2.6375 7.4c.0135.0382.0071.0806-.0173.1129-1.4819 1.9699-2.3434 4.3366-2.4748 6.7982l-.0447.8385c-.2791 5.2305.3368 10.4694 1.8218 15.4926 1.2237 4.1394 2.6261 8.8833 3.4857 11.791.4535 1.5341 2.0204 2.4392 3.5759 2.0656 3.3491-.8043 9.1011-2.1862 13.631-3.2769 3.9835-.9592 7.7711-2.5945 11.2054-4.8294l2.1489-1.3984c2.0661-1.3445 3.6849-3.274 4.65-5.5424.0158-.0372.0493-.064.0891-.0713l7.7274-1.416c1.6124-.2954 2.8813-1.5448 3.2018-3.1524l1.4404-7.2254c.1915-.9603.024-1.9574-.4706-2.8025l-9.3748-16.0186c-.6142-1.0494-.7177-2.3213-.2812-3.4562z" fill-rule="evenodd" stroke="#fff" stroke-width="5.5"/></g></svg>